<?xml version="1.0" encoding="utf-8"?>
<!-- Generator: Adobe Illustrator 15.0.2, SVG Export Plug-In . SVG Version: 6.00 Build 0)  -->
<!DOCTYPE svg PUBLIC "-//W3C//DTD SVG 1.1//EN" "http://www.w3.org/Graphics/SVG/1.1/DTD/svg11.dtd">
<svg version="1.1" id="Layer_1" xmlns="http://www.w3.org/2000/svg" xmlns:xlink="http://www.w3.org/1999/xlink" x="0px" y="0px"
	 width="374.852px" height="81.312px" viewBox="0 0 374.852 81.312" enable-background="new 0 0 374.852 81.312"
	 xml:space="preserve">
<g enable-background="new    ">
	<path fill="#ffffff" d="M118.066,12.711c7.247,0,12.695,1.74,16.344,5.22c3.647,3.481,5.472,8.413,5.472,14.797
		c0,4.464-0.625,8.616-1.872,12.456c-1.249,3.84-3.108,7.163-5.58,9.972c-2.473,2.808-5.569,5.004-9.288,6.588
		c-3.72,1.584-8.053,2.376-12.996,2.376H88.69l10.8-51.408H118.066z M110.65,54.615c2.88,0,5.436-0.527,7.668-1.584
		c2.232-1.056,4.104-2.495,5.616-4.32c1.512-1.823,2.664-3.935,3.456-6.336c0.792-2.399,1.188-4.968,1.188-7.704
		c0-1.872-0.205-3.563-0.612-5.076c-0.408-1.512-1.069-2.818-1.98-3.924c-0.913-1.104-2.077-1.955-3.492-2.556
		c-1.417-0.6-3.132-0.9-5.148-0.9h-8.496l-6.912,32.4H110.65z"/>
	<path fill="#ffffff" d="M159.609,26.895l-7.92,37.224h-10.224l7.848-37.224H159.609z M150.465,21.135l1.872-8.424h10.296
		l-1.872,8.424H150.465z"/>
	<path fill="#ffffff" d="M193.448,69.375c-1.056,2.017-2.412,3.672-4.067,4.968c-1.657,1.296-3.625,2.256-5.905,2.88
		c-2.28,0.624-4.957,0.937-8.028,0.937c-1.872,0-3.756-0.216-5.652-0.648c-1.897-0.432-3.6-1.128-5.112-2.088
		c-1.512-0.961-2.736-2.208-3.672-3.744s-1.404-3.432-1.404-5.688h10.152c-0.048,0.96,0.119,1.775,0.504,2.448
		c0.384,0.671,0.9,1.224,1.548,1.655c0.648,0.433,1.379,0.744,2.196,0.937c0.815,0.191,1.631,0.288,2.448,0.288
		c1.631,0,2.988-0.337,4.068-1.008c1.08-0.673,2.003-1.584,2.772-2.736c0.767-1.152,1.415-2.521,1.944-4.104
		c0.528-1.584,1.055-3.264,1.584-5.04l-0.144-0.144c-2.64,3.505-6.048,5.256-10.224,5.256c-2.208,0-4.201-0.359-5.976-1.08
		c-1.776-0.72-3.276-1.751-4.5-3.096c-1.224-1.344-2.172-2.939-2.844-4.788c-0.673-1.848-1.008-3.924-1.008-6.228
		c0-2.736,0.419-5.437,1.26-8.101c0.839-2.664,2.063-5.063,3.672-7.2c1.608-2.135,3.576-3.863,5.904-5.184
		c2.328-1.319,4.979-1.98,7.956-1.98c2.592,0,4.871,0.505,6.84,1.513c1.968,1.008,3.48,2.735,4.537,5.184h0.144l1.151-5.688h9.793
		l-7.416,35.279C195.344,64.958,194.504,67.359,193.448,69.375z M178.257,34.959c-1.296,0.912-2.376,2.052-3.24,3.42
		c-0.864,1.368-1.524,2.88-1.98,4.536c-0.457,1.656-0.684,3.229-0.684,4.716c0,1.105,0.131,2.149,0.396,3.132
		c0.263,0.984,0.684,1.861,1.26,2.629s1.296,1.367,2.16,1.8c0.864,0.432,1.896,0.647,3.096,0.647c1.824,0,3.42-0.443,4.788-1.332
		c1.368-0.888,2.495-2.016,3.384-3.384c0.888-1.368,1.56-2.892,2.016-4.572c0.456-1.68,0.685-3.312,0.685-4.896
		c0-2.352-0.602-4.284-1.801-5.796c-1.2-1.513-3.048-2.269-5.543-2.269C181.065,33.591,179.552,34.048,178.257,34.959z"/>
	<path fill="#ffffff" d="M222.248,26.895l-7.92,37.224h-10.225l7.848-37.224H222.248z M213.104,21.135l1.872-8.424h10.296
		l-1.872,8.424H213.104z"/>
</g>
<g enable-background="new    ">
	<path fill="#ffffff" d="M266.27,19.119c-2.568-2.207-6.013-3.312-10.332-3.312c-3.889,0-7.262,0.804-10.117,2.411
		c-2.855,1.609-5.244,3.721-7.163,6.336c-1.921,2.617-3.349,5.593-4.284,8.929c-0.936,3.337-1.404,6.757-1.404,10.26
		c0,2.641,0.384,5.017,1.152,7.128c0.768,2.113,1.883,3.924,3.348,5.437c1.464,1.512,3.252,2.676,5.364,3.491
		c2.112,0.817,4.487,1.225,7.128,1.225c2.016,0,3.947-0.336,5.796-1.008c1.848-0.672,3.528-1.632,5.04-2.881
		c1.512-1.247,2.832-2.771,3.96-4.571c1.128-1.801,2.004-3.804,2.628-6.013h4.896c-0.576,2.641-1.488,5.102-2.736,7.38
		c-1.248,2.281-2.832,4.248-4.752,5.904s-4.176,2.952-6.768,3.888c-2.592,0.937-5.545,1.404-8.856,1.404
		c-3.36,0-6.349-0.528-8.964-1.584c-2.617-1.055-4.824-2.531-6.624-4.428c-1.8-1.896-3.168-4.188-4.104-6.876
		c-0.936-2.688-1.403-5.663-1.403-8.928c0-4.128,0.623-8.088,1.872-11.881c1.247-3.791,3.07-7.163,5.472-10.115
		c2.399-2.952,5.328-5.304,8.784-7.057c3.456-1.751,7.391-2.628,11.808-2.628c2.688,0,5.195,0.373,7.524,1.116
		c2.328,0.745,4.344,1.836,6.048,3.276c1.703,1.439,3.048,3.239,4.032,5.399c0.982,2.16,1.5,4.681,1.548,7.561h-4.896
		C270.168,24.616,268.836,21.327,266.27,19.119z"/>
	<path fill="#ffffff" d="M282.613,32.583c0.937-1.535,2.1-2.796,3.492-3.78c1.392-0.982,2.976-1.715,4.752-2.195
		c1.775-0.479,3.647-0.721,5.616-0.721c1.248,0,2.628,0.121,4.14,0.36c1.513,0.241,2.916,0.673,4.212,1.296
		c1.297,0.625,2.377,1.465,3.24,2.521c0.864,1.056,1.296,2.424,1.296,4.104c0,0.912-0.084,1.921-0.252,3.024
		c-0.169,1.104-0.372,2.221-0.612,3.348c-0.24,1.129-0.492,2.232-0.756,3.312c-0.264,1.079-0.492,2.028-0.684,2.844
		c-0.432,2.064-0.805,3.78-1.116,5.147c-0.312,1.368-0.564,2.509-0.756,3.42c-0.192,0.913-0.337,1.656-0.433,2.232
		s-0.144,1.152-0.144,1.728c0,0.673,0.263,1.093,0.792,1.261c0.527,0.169,1.055,0.252,1.584,0.252c0.336,0,0.636-0.012,0.9-0.036
		c0.264-0.023,0.563-0.06,0.9-0.108l-0.648,3.528c-1.201,0.239-2.448,0.36-3.744,0.36c-2.545,0-3.864-1.32-3.96-3.96
		c0-0.336,0.011-0.672,0.036-1.009c0.023-0.335,0.06-0.671,0.107-1.008l-0.144-0.144c-1.296,2.16-3.121,3.828-5.472,5.004
		c-2.354,1.176-4.824,1.764-7.416,1.764c-1.729,0-3.312-0.192-4.752-0.576c-1.44-0.385-2.677-0.982-3.709-1.8
		c-1.032-0.815-1.848-1.872-2.447-3.168s-0.9-2.855-0.9-4.68c0-1.968,0.35-3.624,1.044-4.968c0.695-1.344,1.644-2.448,2.845-3.312
		c1.199-0.864,2.566-1.548,4.104-2.052c1.535-0.504,3.143-0.9,4.824-1.188c2.447-0.383,4.668-0.563,6.66-0.54
		c1.99,0.025,3.707-0.155,5.147-0.54c1.487-0.383,2.604-1.08,3.349-2.088c0.743-1.008,1.115-2.735,1.115-5.184
		c0-1.104-0.252-2.004-0.756-2.7c-0.504-0.695-1.129-1.235-1.872-1.62c-0.745-0.384-1.584-0.647-2.521-0.792
		c-0.936-0.144-1.836-0.216-2.699-0.216c-1.439,0-2.809,0.144-4.104,0.432c-1.297,0.288-2.473,0.757-3.528,1.404
		c-1.057,0.648-1.933,1.512-2.628,2.592c-0.697,1.08-1.164,2.389-1.404,3.924h-4.536C281.065,35.943,281.676,34.12,282.613,32.583z
		 M303.097,44.103c-0.385,0.432-0.925,0.78-1.62,1.044c-0.696,0.264-1.429,0.468-2.196,0.611c-0.769,0.145-1.548,0.241-2.34,0.288
		c-0.792,0.049-1.476,0.097-2.052,0.145c-1.393,0.097-2.941,0.229-4.645,0.396c-1.704,0.169-3.301,0.529-4.787,1.08
		c-1.488,0.553-2.736,1.368-3.744,2.448s-1.512,2.604-1.512,4.572c0,1.2,0.227,2.221,0.684,3.06
		c0.455,0.841,1.067,1.537,1.836,2.088c0.768,0.553,1.656,0.948,2.664,1.188s2.039,0.359,3.096,0.359c3.647,0,6.6-0.983,8.855-2.952
		c2.256-1.967,3.744-4.607,4.465-7.92l1.439-6.264L303.097,44.103z"/>
	<path fill="#ffffff" d="M326.857,30.783l-7.344,33.336h-4.536l7.344-33.336h-6.479l0.864-3.816h6.408l1.151-5.399
		c0.576-2.736,1.607-4.896,3.097-6.48c1.486-1.584,3.768-2.376,6.84-2.376c0.814,0,1.607,0.025,2.375,0.072
		c0.768,0.048,1.536,0.192,2.305,0.432l-0.792,3.744c-0.48-0.096-0.948-0.191-1.404-0.288c-0.456-0.096-0.925-0.144-1.403-0.144
		c-2.113,0-3.625,0.421-4.537,1.26c-0.912,0.841-1.584,2.173-2.016,3.996l-1.08,5.184h7.344l-0.863,3.816H326.857z"/>
	<path fill="#ffffff" d="M337.871,49.647c0,1.681,0.217,3.239,0.648,4.68s1.092,2.677,1.98,3.708
		c0.887,1.033,2.016,1.849,3.384,2.448c1.368,0.601,2.963,0.899,4.788,0.899c3.023,0,5.591-0.852,7.703-2.556
		c2.112-1.703,3.601-3.924,4.465-6.66h4.535c-1.248,4.225-3.264,7.44-6.047,9.648c-2.785,2.208-6.408,3.312-10.873,3.312
		c-4.943,0-8.7-1.392-11.268-4.176c-2.568-2.783-3.852-6.624-3.852-11.521c0-2.976,0.443-5.867,1.332-8.676
		c0.887-2.808,2.195-5.315,3.924-7.523s3.84-3.984,6.336-5.328c2.495-1.344,5.328-2.017,8.496-2.017c2.256,0,4.248,0.35,5.976,1.044
		c1.728,0.697,3.204,1.682,4.429,2.952c1.224,1.272,2.146,2.797,2.771,4.572c0.623,1.776,0.936,3.744,0.936,5.904
		c0,1.056-0.024,2.112-0.071,3.168c-0.049,1.057-0.144,2.136-0.288,3.24h-29.088C337.944,47.631,337.871,48.592,337.871,49.647z
		 M362.964,41.475c0.023-0.456,0.036-0.924,0.036-1.404c0-3.168-0.9-5.688-2.7-7.561s-4.284-2.808-7.452-2.808
		c-1.872,0-3.589,0.372-5.148,1.116c-1.561,0.744-2.951,1.728-4.176,2.952c-1.224,1.224-2.244,2.628-3.06,4.212
		c-0.817,1.584-1.417,3.239-1.8,4.968h24.264C362.928,42.424,362.94,41.931,362.964,41.475z"/>
</g>
<path fill="none" stroke="#ffffff" stroke-width="4.5" stroke-miterlimit="10" d="M79.062,76.201c0,1.58-1.281,2.86-2.858,2.86
	H5.108c-1.579,0-2.856-1.28-2.856-2.86V5.109C2.25,3.53,3.53,2.25,5.108,2.25h71.095c1.577,0,2.858,1.281,2.858,2.859L79.062,76.201
	L79.062,76.201z"/>
<path fill="#ffffff" d="M55.292,17.078l1.664-4.337c0.167-0.445-0.155-0.91-0.622-0.91h-6.177l-1.953,5.08h-2.74l1.597-4.17
	c0.167-0.443-0.156-0.91-0.621-0.91h-6.178l-1.953,5.08h-19.32c-0.876,0-1.695,0.479-2.129,1.242l-4.812,8.497h6.73h29.37
	c1.199,0,2.387,0.221,3.494,0.677c2.13,0.876,4.648,2.861,4.017,7.331c-1.055,7.486-8.686,20.752-25.243,20.962l8.562-22.293
	c0.355-0.921-0.32-1.896-1.308-1.896H26.19L12.323,65.503c0,0,2.795,0.348,7.176,0.348l-1.375,3.581h6.312
	c0.499,0,0.954-0.312,1.144-0.777l1.187-3.082c0.935-0.079,1.875-0.179,2.852-0.289l-1.599,4.148h6.312
	c0.499,0,0.954-0.312,1.143-0.777l1.796-4.69c10.372-2.36,21.52-7.51,28.141-18.364C78.772,23.699,64.885,18.042,55.292,17.078z"/>
</svg>
