<?xml version="1.0" encoding="utf-8"?>
<!-- Generator: Adobe Illustrator 24.1.0, SVG Export Plug-In . SVG Version: 6.00 Build 0)  -->
<svg version="1.1" id="Layer_1" xmlns="http://www.w3.org/2000/svg" xmlns:xlink="http://www.w3.org/1999/xlink" x="0px" y="0px"
	 viewBox="0 0 571.5 94" style="enable-background:new 0 0 571.5 94;" xml:space="preserve">
<style type="text/css">
	.st0{fill:none;}
</style>
<polygon fill="#ffffff" class="st0" points="408.25,59.75 395.41,28.62 379.82,31.06 367.62,59.75 "/>
<path fill="#ffffff" class="st0" d="M52.38,26.5c-2.75-2.08-5.98-3.64-9.69-4.69c-3.71-1.04-7.61-1.56-11.69-1.56H19.5v52.5h10.12
	c4.5,0,8.69-0.46,12.56-1.38c3.88-0.92,7.23-2.44,10.06-4.56c2.83-2.12,5.06-4.92,6.69-8.38c1.62-3.46,2.44-7.69,2.44-12.69
	c0-4.33-0.81-8.1-2.44-11.31C57.31,31.23,55.12,28.58,52.38,26.5z"/>
<path fill="#ffffff" class="st0" d="M163.56,72.88c3.38,1.42,7.14,2.12,11.31,2.12c4.25,0,7.92-0.48,11-1.44c3.08-0.96,5.54-1.94,7.38-2.94V60.27
	l-38.87,6.09c0.17,0.19,0.32,0.39,0.49,0.58C157.29,69.48,160.18,71.46,163.56,72.88z"/>
<polygon fill="#ffffff" class="st0" points="388.25,11.25 379.82,31.06 395.41,28.62 "/>
<path fill="#ffffff" d="M3,91.75h31.88c6.58,0,12.88-0.96,18.88-2.88c5.53-1.77,10.46-4.31,14.79-7.6L3,91.54V91.75z"/>
<path fill="#ffffff" d="M77.56,65.69c2.71-5.46,4.06-11.77,4.06-18.94c0-8.08-1.4-14.96-4.19-20.62c-2.79-5.67-6.56-10.27-11.31-13.81
	c-4.75-3.54-10.31-6.1-16.69-7.69c-6.38-1.58-13.11-2.38-20.19-2.38H0v88.29l65.54-10.26c0.36-0.28,0.73-0.55,1.09-0.84
	C71.21,75.73,74.85,71.15,77.56,65.69z M58.94,58.44c-1.62,3.46-3.86,6.25-6.69,8.38c-2.83,2.12-6.19,3.65-10.06,4.56
	c-3.88,0.92-8.06,1.38-12.56,1.38H19.5v-52.5H31c4.08,0,7.98,0.52,11.69,1.56c3.71,1.04,6.94,2.61,9.69,4.69
	c2.75,2.08,4.94,4.73,6.56,7.94c1.62,3.21,2.44,6.98,2.44,11.31C61.38,50.75,60.56,54.98,58.94,58.44z"/>
<polygon fill="#ffffff" points="94.62,2.25 94.62,75.72 114.12,72.67 114.12,2.25 "/>
<polygon fill="#ffffff" points="97.62,91.75 117.12,91.75 117.12,73.67 97.62,76.72 "/>
<path fill="#ffffff" d="M196.25,71.62c-1.83,1-4.29,1.98-7.38,2.94c-3.08,0.96-6.75,1.44-11,1.44c-4.17,0-7.94-0.71-11.31-2.12
	c-3.38-1.42-6.27-3.39-8.69-5.94c-0.17-0.18-0.32-0.39-0.49-0.58l-21.8,3.41c2.14,4.04,4.82,7.6,8.04,10.66
	c4.25,4.04,9.29,7.15,15.12,9.31c5.83,2.17,12.21,3.25,19.12,3.25c6.5,0,12.88-0.67,19.12-2s12.25-3.5,18-6.5V58.34l-18.75,2.94
	V71.62z"/>
<path fill="#ffffff" d="M149.31,57.94c-1.29-3.46-1.94-7.27-1.94-11.44c0-4.08,0.64-7.88,1.94-11.38c1.29-3.5,3.14-6.52,5.56-9.06
	c2.42-2.54,5.31-4.52,8.69-5.94c3.38-1.42,7.14-2.12,11.31-2.12c5,0,9.17,0.71,12.5,2.12c3.33,1.42,6.33,3.5,9,6.25l13.75-15
	c-4.5-4.17-9.73-7.1-15.69-8.81C188.48,0.86,181.95,0,174.87,0c-6.92,0-13.29,1.08-19.12,3.25c-5.83,2.17-10.88,5.27-15.12,9.31
	c-4.25,4.04-7.56,8.94-9.94,14.69s-3.56,12.17-3.56,19.25c0,7.08,1.19,13.5,3.56,19.25c0.58,1.39,1.21,2.73,1.89,4.03l21.8-3.41
	C152.21,63.94,150.51,61.15,149.31,57.94z"/>
<polygon fill="#ffffff" points="177.37,38.25 177.37,56.25 193.25,56.25 193.25,60.27 212,57.34 212,38.25 "/>
<polygon fill="#ffffff" points="231.87,91.75 251.37,91.75 251.37,52.64 231.87,55.7 "/>
<polygon fill="#ffffff" points="228.87,2.25 228.87,54.7 248.37,51.64 248.37,2.25 "/>
<path fill="#ffffff" d="M274.37,31.12c1.75-4.75,4.25-8.88,7.5-12.38s7.19-6.25,11.81-8.25s9.81-3,15.56-3c4.5,0,8.89,0.96,13.19,2.88
	c4.29,1.92,7.81,4.96,10.56,9.12l6.75-5.62c-3.92-5-8.48-8.56-13.69-10.69C320.85,1.06,315.25,0,309.25,0
	c-6.75,0-12.94,1.17-18.56,3.5c-5.62,2.33-10.44,5.56-14.44,9.69s-7.12,9.02-9.38,14.69c-2.25,5.67-3.38,11.88-3.38,18.62
	c0,0.93,0.03,1.85,0.07,2.76l8.21-1.29c-0.01-0.49-0.03-0.98-0.03-1.48C271.75,41,272.62,35.88,274.37,31.12z"/>
<path fill="#ffffff" d="M269.87,66.19c2.25,5.71,5.38,10.62,9.38,14.75s8.81,7.33,14.44,9.62S305.5,94,312.25,94c6.5,0,12.54-1.25,18.12-3.75
	c5.58-2.5,10.5-6.62,14.75-12.38l-6.75-5.12c-1.58,2.42-3.42,4.48-5.5,6.19c-2.08,1.71-4.27,3.12-6.56,4.25
	c-2.29,1.12-4.65,1.96-7.06,2.5c-2.42,0.54-4.75,0.81-7,0.81c-5.75,0-10.94-1-15.56-3s-8.56-4.75-11.81-8.25s-5.75-7.62-7.5-12.38
	c-1.59-4.32-2.45-8.96-2.6-13.9l-8.21,1.29C266.83,55.96,267.93,61.27,269.87,66.19z"/>
<polygon fill="#ffffff" points="384.37,2.25 371.21,32.4 379.82,31.06 388.25,11.25 395.41,28.62 403.44,27.36 392.87,2.25 "/>
<polygon fill="#ffffff" points="411.25,60.75 370.62,60.75 382.82,32.06 374.21,33.4 348.75,91.75 357.37,91.75 367.37,68.25 414.25,68.25 
	423.87,91.75 433.12,91.75 406.44,28.36 398.41,29.62 "/>
<polygon fill="#ffffff" points="445.87,91.75 454.12,91.75 454.12,49.75 495.75,49.75 495.75,42.25 454.12,42.25 454.12,20.89 445.87,22.18 "/>
<polygon fill="#ffffff" points="495.87,9.75 495.87,2.25 442.87,2.25 442.87,21.18 451.12,19.89 451.12,9.75 "/>
<polygon fill="#ffffff" points="523.62,49.75 566.62,49.75 566.62,42.25 523.62,42.25 523.62,10.75 569.5,10.75 569.5,3.25 566.76,3.25 
	515.37,11.3 515.37,91.75 571.5,91.75 571.5,84.25 523.62,84.25 "/>
<polygon fill="#ffffff" points="512.37,2.25 512.37,10.3 563.76,2.25 "/>
</svg>
