<?xml version="1.0" encoding="utf-8"?>
<!-- Generator: Adobe Illustrator 24.1.0, SVG Export Plug-In . SVG Version: 6.00 Build 0)  -->
<svg version="1.1" id="Layer_1" xmlns="http://www.w3.org/2000/svg" xmlns:xlink="http://www.w3.org/1999/xlink" x="0px" y="0px"
	 viewBox="0 0 532.74 94.12" style="enable-background:new 0 0 532.74 94.12;" xml:space="preserve">
<style type="text/css">
	.st0{fill:#041F38;}
</style>
<path class="st0" d="M78.31,66.44c2.88-5.62,4.31-12.31,4.31-20.06c0-8.33-1.46-15.33-4.38-21c-2.92-5.67-6.75-10.19-11.5-13.56
	S56.58,6.02,50.5,4.56C44.42,3.11,38.25,2.38,32,2.38H0v87.73l69.29-11.78C72.92,75.04,75.94,71.09,78.31,66.44z M57.94,58.75
	c-1.62,3.33-3.79,6-6.5,8c-2.71,2-5.83,3.44-9.38,4.31c-3.54,0.88-7.23,1.31-11.06,1.31H20.88V20.62H31.5
	c3.67,0,7.23,0.42,10.69,1.25c3.46,0.83,6.54,2.23,9.25,4.19c2.71,1.96,4.88,4.58,6.5,7.88c1.62,3.29,2.44,7.44,2.44,12.44
	C60.38,51.29,59.56,55.42,57.94,58.75z"/>
<path class="st0" d="M3,91.88h33c6.08,0,12.08-0.85,18-2.56c5.92-1.71,11.23-4.38,15.94-8c0.82-0.63,1.59-1.3,2.36-1.99L3,91.11
	V91.88z"/>
<polygon class="st0" points="96.75,2.38 96.75,73.66 118.25,70 118.25,2.38 "/>
<polygon class="st0" points="99.75,91.88 121.25,91.88 121.25,71 99.75,74.66 "/>
<path class="st0" d="M156.87,57.75c-1.17-3.42-1.75-7.17-1.75-11.25c0-4,0.64-7.69,1.94-11.06c1.29-3.38,3.1-6.29,5.44-8.75
	c2.33-2.46,5.08-4.38,8.25-5.75c3.17-1.38,6.62-2.06,10.38-2.06c4.33,0,8.21,0.77,11.62,2.31c3.42,1.54,6.17,3.52,8.25,5.94
	l13.5-15.38c-3.75-3.58-8.62-6.44-14.62-8.56S187.37,0,180.37,0c-6.75,0-13.04,1.08-18.88,3.25c-5.83,2.17-10.92,5.27-15.25,9.31
	c-4.33,4.04-7.73,8.94-10.19,14.69c-2.46,5.75-3.69,12.17-3.69,19.25c0,7,1.21,13.36,3.62,19.06c0.19,0.45,0.4,0.88,0.6,1.32
	l22.78-3.87C158.37,61.4,157.52,59.66,156.87,57.75z"/>
<path class="st0" d="M198.5,73c-1.92,0.83-4,1.44-6.25,1.81s-4.62,0.56-7.12,0.56c-4.33,0-8.19-0.69-11.56-2.06s-6.21-3.29-8.5-5.75
	c-1.01-1.09-1.9-2.28-2.69-3.55l-22.78,3.87c2.36,5.14,5.51,9.61,9.47,13.37c4.29,4.08,9.42,7.25,15.38,9.5
	c5.96,2.25,12.48,3.38,19.56,3.38c6.83,0,13.14-0.71,18.94-2.12c5.79-1.42,10.85-3.25,15.19-5.5V54.53l-19.62,3.34V73z"/>
<polygon class="st0" points="178.62,38.62 178.62,55.88 195.5,55.88 195.5,56.87 215.12,53.53 215.12,38.62 "/>
<polygon class="st0" points="232.62,2.38 232.62,50.55 254.12,46.9 254.12,2.38 "/>
<polygon class="st0" points="235.62,91.88 257.12,91.88 257.12,47.9 235.62,51.55 "/>
<polygon class="st0" points="297.37,91.88 306.37,91.88 306.37,39.52 297.37,41.05 "/>
<polygon class="st0" points="333,10.38 333,2.38 264.75,2.38 264.75,10.38 294.37,10.38 294.37,40.05 303.37,38.52 303.37,10.38 "/>
<polygon class="st0" points="349.25,91.88 358.25,91.88 358.25,30.7 349.25,32.23 "/>
<polygon class="st0" points="346.25,2.38 346.25,31.23 355.25,29.7 355.25,2.38 "/>
<path class="st0" d="M424.68,5.12c-5.54-1.83-11.06-2.75-16.56-2.75h-29.38v23.33l9-1.53v-13.8h17.88c6.67,0,12.48,1.04,17.44,3.12
	c2.43,1.02,4.66,2.2,6.68,3.54l11.75-2c-0.59-0.55-1.18-1.09-1.8-1.6C435.22,9.73,430.22,6.96,424.68,5.12z"/>
<path class="st0" d="M438.37,22.69c3.25,3.38,5.69,7.23,7.31,11.56c1.62,4.33,2.44,8.79,2.44,13.38c0,4.58-0.81,9.04-2.44,13.38
	c-1.62,4.33-4.06,8.19-7.31,11.56s-7.36,6.11-12.31,8.19c-4.96,2.08-10.77,3.12-17.44,3.12h-17.88v-58.7l-9,1.53v65.17h29.38
	c5.5,0,11.02-0.92,16.56-2.75c5.54-1.83,10.54-4.6,15-8.31c4.46-3.71,8.06-8.31,10.81-13.81s4.12-11.96,4.12-19.38
	c0-7.33-1.38-13.77-4.12-19.31c-2.37-4.77-5.37-8.86-9.01-12.27l-11.75,2C434.84,19.42,436.72,20.97,438.37,22.69z"/>
<polygon class="st0" points="485.37,49.75 528.24,49.75 528.24,41.75 485.37,41.75 485.37,11.38 531.24,11.38 531.24,3.38 
	518.97,3.38 476.37,10.62 476.37,91.88 532.74,91.88 532.74,83.88 485.37,83.88 "/>
<polygon class="st0" points="473.37,2.38 473.37,9.62 515.97,2.38 "/>
</svg>
