<svg viewBox="0 0 500 500" xmlns="http://www.w3.org/2000/svg" width="1em" height="1em" class="sf-currency-symbol sf-currency-symbol--eth sf-currency-symbol--circle"><title>ETH - Circle</title><path d="M250 .749C387.658.749 499.251 112.342 499.251 250c0 137.658-111.593 249.251-249.251 249.251C112.342 499.251.749 387.658.749 250 .749 112.342 112.342.749 250 .749zM132.951 280.413L246.17 439v-92.946l-113.219-65.64zm233.098 0l-113.219 65.64V439l113.219-158.587zm-119.879-74.07L132 255.912l114.17 66.284V206.343zm6.66 0v115.853L367 255.943l-114.17-49.6zM246.17 62.95L136.757 247.176l109.413-48.028V62.95zm7.611-.95v136.413l111.316 48.763L253.781 62z" fill="#4D8EE9" fill-rule="nonzero"></path></svg>